<mxfile host="app.diagrams.net" modified="2023-08-20T23:53:46.549Z" agent="Mozilla/5.0 (Windows NT 10.0; Win64; x64; rv:109.0) Gecko/20100101 Firefox/116.0" etag="igRFO1RXC_OgUvZgRQaN" version="21.6.6" type="github">
  <diagram name="Page-1" id="gt39l0n_tbjRKr8B7Sow">
    <mxGraphModel dx="1247" dy="673" grid="1" gridSize="10" guides="1" tooltips="1" connect="1" arrows="1" fold="1" page="1" pageScale="1" pageWidth="1100" pageHeight="850" math="0" shadow="0">
      <root>
        <mxCell id="0" />
        <mxCell id="1" parent="0" />
        <mxCell id="S1evl2trHZ4QEoqljqaM-46" style="edgeStyle=orthogonalEdgeStyle;rounded=0;orthogonalLoop=1;jettySize=auto;html=1;entryX=1;entryY=0.5;entryDx=0;entryDy=0;" edge="1" parent="1" source="S1evl2trHZ4QEoqljqaM-43" target="S1evl2trHZ4QEoqljqaM-44">
          <mxGeometry relative="1" as="geometry" />
        </mxCell>
        <mxCell id="S1evl2trHZ4QEoqljqaM-47" value="&lt;div&gt;nama_tiket&lt;/div&gt;&lt;div&gt;deskripsi_masalah&lt;br&gt;&lt;/div&gt;" style="edgeLabel;html=1;align=center;verticalAlign=middle;resizable=0;points=[];" vertex="1" connectable="0" parent="S1evl2trHZ4QEoqljqaM-46">
          <mxGeometry y="-1" relative="1" as="geometry">
            <mxPoint as="offset" />
          </mxGeometry>
        </mxCell>
        <mxCell id="S1evl2trHZ4QEoqljqaM-43" value="Customer" style="rounded=0;whiteSpace=wrap;html=1;" vertex="1" parent="1">
          <mxGeometry x="830" y="230" width="120" height="60" as="geometry" />
        </mxCell>
        <mxCell id="S1evl2trHZ4QEoqljqaM-48" style="edgeStyle=orthogonalEdgeStyle;rounded=0;orthogonalLoop=1;jettySize=auto;html=1;exitX=0;exitY=0.5;exitDx=0;exitDy=0;entryX=1;entryY=0.5;entryDx=0;entryDy=0;" edge="1" parent="1" source="S1evl2trHZ4QEoqljqaM-44" target="S1evl2trHZ4QEoqljqaM-45">
          <mxGeometry relative="1" as="geometry" />
        </mxCell>
        <mxCell id="S1evl2trHZ4QEoqljqaM-49" value="&lt;div&gt;id_tiket&lt;/div&gt;&lt;div&gt;nama_tiket&lt;/div&gt;&lt;div&gt;deskripsi_masalah&lt;br&gt;&lt;/div&gt;" style="edgeLabel;html=1;align=center;verticalAlign=middle;resizable=0;points=[];" vertex="1" connectable="0" parent="S1evl2trHZ4QEoqljqaM-48">
          <mxGeometry x="-0.0154" y="-2" relative="1" as="geometry">
            <mxPoint as="offset" />
          </mxGeometry>
        </mxCell>
        <mxCell id="S1evl2trHZ4QEoqljqaM-44" value="3.1 Proses create ticket" style="ellipse;whiteSpace=wrap;html=1;aspect=fixed;" vertex="1" parent="1">
          <mxGeometry x="470" y="180" width="160" height="160" as="geometry" />
        </mxCell>
        <mxCell id="S1evl2trHZ4QEoqljqaM-54" style="edgeStyle=orthogonalEdgeStyle;rounded=0;orthogonalLoop=1;jettySize=auto;html=1;exitX=0.25;exitY=1;exitDx=0;exitDy=0;entryX=0;entryY=1;entryDx=0;entryDy=0;" edge="1" parent="1" source="S1evl2trHZ4QEoqljqaM-45" target="S1evl2trHZ4QEoqljqaM-50">
          <mxGeometry relative="1" as="geometry">
            <Array as="points">
              <mxPoint x="200" y="517" />
            </Array>
          </mxGeometry>
        </mxCell>
        <mxCell id="S1evl2trHZ4QEoqljqaM-57" value="&lt;div&gt;id_tiket&lt;/div&gt;&lt;div&gt;nama_tiket&lt;/div&gt;&lt;div&gt;deskripsi_masalah&lt;br&gt;&lt;/div&gt;" style="edgeLabel;html=1;align=center;verticalAlign=middle;resizable=0;points=[];" vertex="1" connectable="0" parent="S1evl2trHZ4QEoqljqaM-54">
          <mxGeometry x="0.3636" y="1" relative="1" as="geometry">
            <mxPoint as="offset" />
          </mxGeometry>
        </mxCell>
        <mxCell id="S1evl2trHZ4QEoqljqaM-45" value="Data Tiket" style="shape=partialRectangle;whiteSpace=wrap;html=1;left=0;right=0;fillColor=none;" vertex="1" parent="1">
          <mxGeometry x="170" y="230" width="120" height="60" as="geometry" />
        </mxCell>
        <mxCell id="S1evl2trHZ4QEoqljqaM-52" style="edgeStyle=orthogonalEdgeStyle;rounded=0;orthogonalLoop=1;jettySize=auto;html=1;entryX=-0.011;entryY=0.892;entryDx=0;entryDy=0;entryPerimeter=0;" edge="1" parent="1" target="S1evl2trHZ4QEoqljqaM-51">
          <mxGeometry relative="1" as="geometry">
            <mxPoint x="620" y="484" as="sourcePoint" />
          </mxGeometry>
        </mxCell>
        <mxCell id="S1evl2trHZ4QEoqljqaM-56" value="&lt;div&gt;id_tiket&lt;/div&gt;&lt;div&gt;nama_tiket&lt;/div&gt;&lt;div&gt;deskripsi_masalah&lt;br&gt;&lt;/div&gt;" style="edgeLabel;html=1;align=center;verticalAlign=middle;resizable=0;points=[];" vertex="1" connectable="0" parent="S1evl2trHZ4QEoqljqaM-52">
          <mxGeometry x="-0.06" y="1" relative="1" as="geometry">
            <mxPoint as="offset" />
          </mxGeometry>
        </mxCell>
        <mxCell id="S1evl2trHZ4QEoqljqaM-55" style="edgeStyle=orthogonalEdgeStyle;rounded=0;orthogonalLoop=1;jettySize=auto;html=1;exitX=0;exitY=0;exitDx=0;exitDy=0;entryX=0.75;entryY=1;entryDx=0;entryDy=0;" edge="1" parent="1" source="S1evl2trHZ4QEoqljqaM-50" target="S1evl2trHZ4QEoqljqaM-45">
          <mxGeometry relative="1" as="geometry" />
        </mxCell>
        <mxCell id="S1evl2trHZ4QEoqljqaM-58" value="&lt;div&gt;id_tiket&lt;/div&gt;&lt;div&gt;nama_tiket&lt;br&gt;&lt;/div&gt;&lt;div&gt;status_tiket&lt;br&gt;&lt;/div&gt;&lt;div&gt;deskripsi_masalah&lt;/div&gt;&lt;div&gt;deskripsi_solusi&lt;/div&gt;&lt;div&gt;durasi_tiket&lt;br&gt;&lt;/div&gt;" style="edgeLabel;html=1;align=center;verticalAlign=middle;resizable=0;points=[];" vertex="1" connectable="0" parent="S1evl2trHZ4QEoqljqaM-55">
          <mxGeometry x="-0.1441" y="-2" relative="1" as="geometry">
            <mxPoint as="offset" />
          </mxGeometry>
        </mxCell>
        <mxCell id="S1evl2trHZ4QEoqljqaM-50" value="3.2 Proses Update Tiket" style="ellipse;whiteSpace=wrap;html=1;aspect=fixed;" vertex="1" parent="1">
          <mxGeometry x="470" y="380" width="160" height="160" as="geometry" />
        </mxCell>
        <mxCell id="S1evl2trHZ4QEoqljqaM-59" style="edgeStyle=orthogonalEdgeStyle;rounded=0;orthogonalLoop=1;jettySize=auto;html=1;exitX=0;exitY=0.169;exitDx=0;exitDy=0;entryX=0.986;entryY=0.378;entryDx=0;entryDy=0;entryPerimeter=0;exitPerimeter=0;" edge="1" parent="1" source="S1evl2trHZ4QEoqljqaM-51" target="S1evl2trHZ4QEoqljqaM-50">
          <mxGeometry relative="1" as="geometry" />
        </mxCell>
        <mxCell id="S1evl2trHZ4QEoqljqaM-60" value="&lt;div&gt;deskripsi solusi&lt;/div&gt;&lt;div&gt;status_tiket&lt;br&gt;&lt;/div&gt;" style="edgeLabel;html=1;align=center;verticalAlign=middle;resizable=0;points=[];" vertex="1" connectable="0" parent="S1evl2trHZ4QEoqljqaM-59">
          <mxGeometry x="0.0188" y="1" relative="1" as="geometry">
            <mxPoint as="offset" />
          </mxGeometry>
        </mxCell>
        <mxCell id="S1evl2trHZ4QEoqljqaM-51" value="Agent" style="rounded=0;whiteSpace=wrap;html=1;" vertex="1" parent="1">
          <mxGeometry x="830" y="430" width="120" height="60" as="geometry" />
        </mxCell>
      </root>
    </mxGraphModel>
  </diagram>
</mxfile>
